<svg width="304" height="249" viewBox="0 0 304 249" fill="none" xmlns="http://www.w3.org/2000/svg">
<path d="M67.0431 139.049C67.0185 129.766 70.2186 120.762 76.0963 113.577C81.9741 106.391 90.1647 101.47 99.2686 99.654C108.372 97.838 117.824 99.2398 126.009 103.62C134.194 108 140.604 115.087 144.143 123.669C146.158 128.546 147.194 133.772 147.194 139.049H67.0431Z" fill="#909BFE"/>
<path d="M147.197 100.38C141.917 100.406 136.683 99.3892 131.797 97.3867C126.911 95.3842 122.469 92.436 118.725 88.7115C114.982 84.987 112.012 80.5595 109.985 75.6835C107.958 70.8075 106.915 65.579 106.915 60.2986C106.915 55.0181 107.958 49.7896 109.985 44.9136C112.012 40.0376 114.982 35.6101 118.725 31.8856C122.469 28.1611 126.911 25.2129 131.797 23.2104C136.683 21.2079 141.917 20.1907 147.197 20.2171V100.38Z" fill="#A5DDFE"/>
<path d="M59.0061 237.027C64.2833 237.027 69.5087 235.988 74.3841 233.968C79.2596 231.948 83.6896 228.988 87.4211 225.256C91.1529 221.524 94.1132 217.093 96.1331 212.217C98.1528 207.341 99.1922 202.115 99.1921 196.837H59.0061V237.027Z" fill="#909BFE"/>
<path d="M147.197 148.391C136.539 148.392 126.317 152.626 118.781 160.163C111.244 167.701 107.011 177.923 107.011 188.581H147.197V148.391Z" fill="#849DFE"/>
<path d="M99.1921 60.624C99.1922 55.3462 98.1527 50.12 96.1331 45.244C94.1137 40.3679 91.1537 35.9372 87.4221 32.205C83.6903 28.473 79.26 25.5127 74.3841 23.493C69.5087 21.4734 64.2832 20.4339 59.0061 20.434V60.624H99.1921Z" fill="#ACA4FE"/>
<path d="M147.197 216.937C147.198 214.298 146.679 211.684 145.669 209.246C144.66 206.807 143.18 204.591 141.314 202.725C139.448 200.858 137.233 199.378 134.795 198.367C132.357 197.357 129.743 196.837 127.104 196.837H107.011V237.027H127.104C132.432 237.027 137.543 234.91 141.311 231.143C145.079 227.375 147.196 222.265 147.197 216.937Z" fill="#F5F4FF"/>
<path d="M99.1921 168.709C99.1929 171.348 98.6738 173.962 97.6644 176.4C96.655 178.839 95.1751 181.055 93.3092 182.921C91.4433 184.788 89.228 186.268 86.7898 187.279C84.3516 188.289 81.7383 188.809 79.0991 188.809H59.0061V148.609H79.0991C81.7383 148.609 84.3516 149.129 86.7898 150.139C89.228 151.15 91.4433 152.63 93.3092 154.497C95.1751 156.363 96.655 158.579 97.6644 161.018C98.6738 163.456 99.1929 166.07 99.1921 168.709Z" fill="#849DFE"/>
<path d="M74.9721 100.379C83.7899 100.379 90.9381 93.2303 90.9381 84.4119C90.9381 75.5936 83.7899 68.4449 74.9721 68.4449C66.1543 68.4449 59.0061 75.5936 59.0061 84.4119C59.0061 93.2303 66.1543 100.379 74.9721 100.379Z" fill="#ACA4FE"/>
<path d="M51.1851 196.402C48.558 196.403 45.9571 196.924 43.532 197.934C41.1068 198.944 38.9053 200.424 37.0541 202.288C34.7234 204.626 33.0034 207.5 32.0458 210.66C31.0882 213.819 30.9224 217.165 31.5629 220.403C32.2035 223.641 33.6307 226.672 35.7189 229.229C37.807 231.785 40.492 233.789 43.5371 235.063C45.9605 236.073 48.5598 236.593 51.1851 236.593V196.402Z" fill="#DDD9FE"/>
<path d="M51.186 148.174V68.011C45.9056 67.9846 40.672 69.0019 35.7859 71.0044C30.8999 73.0068 26.4576 75.955 22.7144 79.6795C18.9712 83.4041 16.0009 87.8315 13.9741 92.7076C11.9472 97.5836 10.9038 102.812 10.9038 108.092C10.9038 113.373 11.9472 118.601 13.9741 123.477C16.0009 128.353 18.9712 132.781 22.7144 136.505C26.4576 140.23 30.8999 143.178 35.7859 145.181C40.672 147.183 45.9056 148.2 51.186 148.174Z" fill="#849DFE"/>
<path d="M11 40.1C10.9992 42.7392 11.5183 45.3527 12.5277 47.7913C13.5372 50.2298 15.017 52.4456 16.8829 54.3121C18.7488 56.1787 20.9641 57.6593 23.4023 58.6696C25.8405 59.6798 28.4538 60.1999 31.093 60.2H51.186V20H31.093C28.4538 20.0001 25.8405 20.5202 23.4023 21.5304C20.9641 22.5407 18.7488 24.0213 16.8829 25.8879C15.017 27.7544 13.5372 29.9702 12.5277 32.4087C11.5183 34.8473 10.9992 37.4608 11 40.1Z" fill="#7AB0FE"/>
<path d="M35.22 156.647C32.0619 156.647 28.9747 157.583 26.3486 159.337C23.7226 161.091 21.6758 163.585 20.467 166.502C19.2582 169.42 18.9417 172.63 19.5575 175.728C20.1734 178.825 21.694 181.67 23.9269 183.904C26.1598 186.137 29.0049 187.658 32.1022 188.274C35.1996 188.89 38.4101 188.574 41.3278 187.366C44.2455 186.157 46.7394 184.111 48.4939 181.485C50.2485 178.859 51.185 175.772 51.185 172.614C51.185 168.38 49.503 164.319 46.5091 161.324C43.5151 158.33 39.4543 156.648 35.22 156.647Z" fill="#DDD9FE"/>
<path d="M231.154 139.049C231.179 129.766 227.979 120.762 222.101 113.577C216.223 106.391 208.032 101.47 198.929 99.654C189.825 97.838 180.373 99.2398 172.188 103.62C164.003 108 157.593 115.087 154.054 123.669C152.038 128.546 151.001 133.772 151 139.049H231.154Z" fill="#909BFE"/>
<path d="M151 100.38C156.276 100.38 161.501 99.3435 166.378 97.329C171.251 95.3158 175.681 92.3634 179.415 88.64C183.145 84.9212 186.105 80.5037 188.126 75.64C190.145 70.7784 191.185 65.5659 191.185 60.3015C191.185 55.0372 190.145 49.8247 188.126 44.963C186.105 40.0994 183.145 35.6819 179.415 31.963C175.682 28.2374 171.252 25.283 166.378 23.268C161.501 21.2535 156.276 20.2169 151 20.217V100.38Z" fill="#A5DDFE"/>
<path d="M239.192 237.027C233.915 237.027 228.689 235.988 223.814 233.968C218.938 231.948 214.508 228.987 210.776 225.255C207.045 221.523 204.085 217.093 202.065 212.217C200.045 207.341 199.006 202.115 199.006 196.837L239.192 196.837V237.027Z" fill="#909BFE"/>
<path d="M151 148.391C156.277 148.391 161.503 149.43 166.378 151.45C171.253 153.47 175.683 156.43 179.415 160.162C183.147 163.894 186.107 168.325 188.127 173.201C190.147 178.077 191.186 183.303 191.186 188.581H151V148.391Z" fill="#849DFE"/>
<path d="M199.006 60.624C199.006 55.3464 200.045 50.1204 202.064 45.2444C204.084 40.3684 207.044 35.9379 210.775 32.2059C214.507 28.4739 218.937 25.5134 223.813 23.4936C228.689 21.4738 233.915 20.4341 239.192 20.434V60.624H199.006Z" fill="#ACA4FE"/>
<path d="M151 216.937C150.999 214.298 151.518 211.684 152.528 209.246C153.537 206.807 155.017 204.591 156.883 202.725C158.749 200.858 160.964 199.378 163.402 198.367C165.84 197.357 168.454 196.837 171.093 196.837H191.186V237.027H171.093C165.765 237.027 160.654 234.91 156.886 231.143C153.118 227.375 151.001 222.265 151 216.937Z" fill="#F5F4FF"/>
<path d="M199.006 168.709C199.005 171.348 199.524 173.962 200.534 176.4C201.543 178.839 203.023 181.055 204.889 182.921C206.755 184.788 208.97 186.268 211.408 187.279C213.847 188.289 216.46 188.809 219.099 188.809H239.192V148.609H219.099C216.46 148.609 213.847 149.129 211.408 150.139C208.97 151.15 206.755 152.63 204.889 154.497C203.023 156.363 201.543 158.579 200.534 161.018C199.524 163.456 199.005 166.07 199.006 168.709Z" fill="#849DFE"/>
<path d="M223.226 100.379C232.044 100.379 239.192 93.2303 239.192 84.4119C239.192 75.5936 232.044 68.4449 223.226 68.4449C214.408 68.4449 207.26 75.5936 207.26 84.4119C207.26 93.2303 214.408 100.379 223.226 100.379Z" fill="#ACA4FE"/>
<path d="M247.011 196.402C249.636 196.402 252.236 196.922 254.659 197.932C257.086 198.943 259.289 200.424 261.142 202.288C262.999 204.156 264.471 206.371 265.474 208.807C266.478 211.246 266.995 213.859 266.995 216.497C266.995 219.135 266.478 221.748 265.474 224.187C264.471 226.621 262.999 228.835 261.142 230.702C259.289 232.566 257.086 234.047 254.659 235.058C252.236 236.069 249.637 236.59 247.011 236.592V196.402Z" fill="#DDD9FE"/>
<path d="M247.011 148.174V68.011C252.287 68.0108 257.512 69.0474 262.389 71.062C267.263 73.0752 271.693 76.0276 275.427 79.751C279.157 83.4698 282.117 87.8874 284.138 92.751C286.157 97.6126 287.197 102.825 287.197 108.089C287.197 113.354 286.157 118.566 284.138 123.428C282.117 128.292 279.157 132.709 275.427 136.428C271.693 140.151 267.263 143.104 262.39 145.117C257.513 147.134 252.288 148.172 247.011 148.174V148.174Z" fill="#849DFE"/>
<path d="M287.197 40.1C287.198 42.7392 286.679 45.3527 285.669 47.7913C284.66 50.2298 283.18 52.4456 281.314 54.3121C279.448 56.1787 277.233 57.6593 274.795 58.6696C272.357 59.6798 269.743 60.1999 267.104 60.2H247.011V20H267.104C269.743 20.0001 272.357 20.5202 274.795 21.5304C277.233 22.5407 279.448 24.0213 281.314 25.8879C283.18 27.7544 284.66 29.9702 285.669 32.4087C286.679 34.8473 287.198 37.4608 287.197 40.1Z" fill="#7AB0FE"/>
<path d="M262.977 156.647C266.135 156.647 269.222 157.583 271.848 159.337C274.474 161.092 276.521 163.585 277.729 166.503C278.938 169.421 279.254 172.631 278.638 175.728C278.022 178.826 276.502 181.671 274.269 183.904C272.036 186.137 269.191 187.658 266.093 188.274C262.996 188.89 259.786 188.574 256.868 187.366C253.95 186.157 251.457 184.111 249.702 181.485C247.947 178.859 247.011 175.772 247.011 172.614C247.011 168.379 248.693 164.318 251.687 161.324C254.681 158.33 258.742 156.647 262.977 156.647V156.647Z" fill="#DDD9FE"/>
<path d="M304 0H0V249H304V0Z" fill="url(#paint0_radial_13_6625)"/>
<path d="M209.896 85.486C209.474 84.8925 208.895 84.429 208.223 84.1478C207.552 83.8666 206.815 83.7791 206.096 83.895C206.041 83.882 205.986 83.858 205.931 83.85L146.688 75.154C146.04 75.0585 145.379 75.1272 144.764 75.354L97.3081 92.746C97.2871 92.754 97.2691 92.767 97.2481 92.775C97.1981 92.796 97.1481 92.827 97.0991 92.846C96.8447 92.958 96.6025 93.0957 96.3761 93.257C96.3081 93.307 96.2421 93.357 96.1761 93.412C95.9321 93.6065 95.7128 93.8302 95.5231 94.078C95.5131 94.094 95.4971 94.102 95.4861 94.117L75.4461 121.528C75.0667 122.046 74.82 122.649 74.7277 123.285C74.6353 123.92 74.7 124.569 74.9162 125.173C75.1324 125.778 75.4934 126.32 75.9678 126.753C76.4421 127.186 77.0153 127.496 77.6371 127.656L95.0251 132.141V175.128C95.0255 175.97 95.2962 176.79 95.7974 177.467C96.2985 178.144 97.0037 178.643 97.8091 178.889L161.473 198.342C161.494 198.352 161.518 198.342 161.539 198.355C161.882 198.453 162.236 198.506 162.593 198.512C162.601 198.512 162.611 198.517 162.622 198.517C162.998 198.512 163.372 198.452 163.731 198.341C163.846 198.304 163.954 198.255 164.072 198.205C164.229 198.155 164.382 198.096 164.531 198.027L210.215 172.674C210.828 172.333 211.339 171.835 211.695 171.23C212.051 170.625 212.238 169.937 212.238 169.235V126.261L227.688 118.841C228.202 118.594 228.656 118.238 229.019 117.798C229.382 117.358 229.644 116.844 229.789 116.292C229.933 115.74 229.956 115.164 229.855 114.602C229.755 114.041 229.533 113.508 229.206 113.041L209.896 85.486ZM146.53 83.08L192.775 89.868L162.099 104.132L113.521 95.181L146.53 83.08ZM100.377 100.754L156.039 111.012L139.679 135.555L85.2141 121.494L100.377 100.754ZM102.888 172.224V134.174L140.416 143.864C140.737 143.946 141.068 143.988 141.399 143.99C142.046 143.99 142.683 143.83 143.253 143.525C143.824 143.22 144.31 142.779 144.669 142.241L158.688 121.211V189.273L102.888 172.224ZM204.374 166.924L166.549 187.91V125.811L173.455 140.486C173.676 140.955 173.988 141.375 174.372 141.722C174.756 142.07 175.205 142.338 175.693 142.512C176.115 142.665 176.56 142.742 177.009 142.74C177.597 142.739 178.177 142.608 178.709 142.357L204.368 130.041L204.373 166.921L204.374 166.924ZM178.888 133.553L167.86 110.126L205.346 92.696L220.113 113.761L178.888 133.553Z" fill="#6C77FF"/>
<defs>
<radialGradient id="paint0_radial_13_6625" cx="0" cy="0" r="1" gradientUnits="userSpaceOnUse" gradientTransform="translate(152 137) rotate(90) scale(100 124.405)">
<stop offset="0.497573" stop-color="white"/>
<stop offset="1" stop-color="white" stop-opacity="0"/>
</radialGradient>
</defs>
</svg>
